<svg xmlns="http://www.w3.org/2000/svg" xmlns:xlink="http://www.w3.org/1999/xlink" width="101" zoomAndPan="magnify" viewBox="32 28 84 84" height="101" preserveAspectRatio="xMidYMid meet" version="1.0" xmlns:c2pa="http://c2pa.org/manifest"><metadata><c2pa:manifest>AAAWgmp1bWIAAAAeanVtZGMycGEAEQAQgAAAqgA4m3EDYzJwYQAAABZcanVtYgAAAEdqdW1kYzJtYQARABCAAACqADibcQN1cm46YzJwYToyY2ViNTFmMC04MGQ2LTRhYzAtOTE0Yy1lM2YyMTVjYzcxZDQAAAADl2p1bWIAAAApanVtZGMyYXMAEQAQgAAAqgA4m3EDYzJwYS5hc3NlcnRpb25zAAAAALxqdW1iAAAARGp1bWRjYm9yABEAEIAAAKoAOJtxE2MycGEuaW5ncmVkaWVudC52MwAAAAAYYzJzaKscrqwufL/iy5/pzgqS8QgAAABwY2JvcqNpZGM6Zm9ybWF0bWltYWdlL3N2Zyt4bWxqaW5zdGFuY2VJRHgseG1wOmlpZDo0Mzc4YzFiMy03NThmLTRiMmYtYTFmYi02NWRmMjQ5ODcyYWZscmVsYXRpb25zaGlwaHBhcmVudE9mAAAB4mp1bWIAAABBanVtZGNib3IAEQAQgAAAqgA4m3ETYzJwYS5hY3Rpb25zLnYyAAAAABhjMnNoSJazloYYjJ0CAZVkp3dWpQAAAZljYm9yomdhY3Rpb25zgqJmYWN0aW9ua2MycGEub3BlbmVkanBhcmFtZXRlcnOha2luZ3JlZGllbnRzgaJjdXJseC1zZWxmI2p1bWJmPWMycGEuYXNzZXJ0aW9ucy9jMnBhLmluZ3JlZGllbnQudjNkaGFzaFggJzndXiuH0r4pYXlJMZC6yf2dAOxtF8W3C86E1QVZMvCkZmFjdGlvbngdY29tLmFudGhyb3BpYy5jbGF1ZGUucHJvdmlkZWRqcGFyYW1ldGVyc6F4H2NvbS5hbnRocm9waWMub3JpZ2luLWNvbmZpZGVuY2VndW5rbm93bmtkZXNjcmlwdGlvbnhmQ2xhdWRlIHByb3ZpZGVkIHRoaXMgZmlsZSBhdCB0aGUgcmVxdWVzdCBvZiBhIHVzZXIgYW5kIG1heSBoYXZlIGNyZWF0ZWQgb3IgbW9kaWZpZWQgdGhlIGZpbGUgY29udGVudHMubXNvZnR3YXJlQWdlbnShZG5hbWVmQ2xhdWRlcmFsbEFjdGlvbnNJbmNsdWRlZPUAAADIanVtYgAAAEBqdW1kY2JvcgARABCAAACqADibcRNjMnBhLmhhc2guZGF0YQAAAAAYYzJzaN7DGQFo4XWF3sK+SyDIyb0AAACAY2JvcqVjYWxnZnNoYTI1NmNwYWRMAAAAAAAAAAAAAAAAZGhhc2hYIKkmgGm8Wq2RXRU+OywV4uJsY7jS80GuhIoQywBWaBo4ZG5hbWVuanVtYmYgbWFuaWZlc3RqZXhjbHVzaW9uc4GiZXN0YXJ0GQEIZmxlbmd0aBkeBAAAAj5qdW1iAAAAJ2p1bWRjMmNsABEAEIAAAKoAOJtxA2MycGEuY2xhaW0udjIAAAACD2Nib3KlY2FsZ2ZzaGEyNTZpc2lnbmF0dXJleE1zZWxmI2p1bWJmPS9jMnBhL3VybjpjMnBhOjJjZWI1MWYwLTgwZDYtNGFjMC05MTRjLWUzZjIxNWNjNzFkNC9jMnBhLnNpZ25hdHVyZWppbnN0YW5jZUlEeCx4bXA6aWlkOjEzNjg3ZDUzLTM0M2UtNDk0OC04NzNmLWYwZGZhODdiOWY2MHJjcmVhdGVkX2Fzc2VydGlvbnODomN1cmx4LXNlbGYjanVtYmY9YzJwYS5hc3NlcnRpb25zL2MycGEuaW5ncmVkaWVudC52M2RoYXNoWCAnOd1eK4fSvilheUkxkLrJ/Z0A7G0XxbcLzoTVBVky8KJjdXJseCpzZWxmI2p1bWJmPWMycGEuYXNzZXJ0aW9ucy9jMnBhLmFjdGlvbnMudjJkaGFzaFggFCWN/8ZTrkuFV/mHRhO01MGblnFMRo/0QnBifh68Iy6iY3VybHgpc2VsZiNqdW1iZj1jMnBhLmFzc2VydGlvbnMvYzJwYS5oYXNoLmRhdGFkaGFzaFggfsSen8rJhsrK6Lt13fTnE6P5xCPU2UiQ5bTJTtrULcN0Y2xhaW1fZ2VuZXJhdG9yX2luZm+jZG5hbWVvQW50aHJvcGljIEZpbGVzZ3ZlcnNpb25lMS4wLjBrc3BlY1ZlcnNpb25lMi40LjAAABA4anVtYgAAAChqdW1kYzJjcwARABCAAACqADibcQNjMnBhLnNpZ25hdHVyZQAAABAIY2JvctKEWQISogEmGCFZAgowggIGMIIBjaADAgECAhRA5aAK7sI50L64g/oGQgU9Z1UTADAKBggqhkjOPQQDAzBJMRcwFQYDVQQKEw5BbnRocm9waWMsIFBCQzEuMCwGA1UEAxMlQW50aHJvcGljIENvbnRlbnQgQ3JlZGVudGlhbHMgUm9vdCBDQTAeFw0yNjA4MDcxODQzNTZaFw0yODA4MDYxOTQzNTZaMEQxFzAVBgNVBAoTDkFudGhyb3BpYywgUEJDMSkwJwYDVQQDEyBBbnRocm9waWMgQ2xhdWRlIENvbnRlbnQgU2lnbmluZzBZMBMGByqGSM49AgEGCCqGSM49AwEHA0IABJh6CmvLUBgFFNU0vUKlOVtE6djd17L5SuwX0LemFisBM3dkd/3cyjxFA3Qo5S46fX0/ihY0VZ7mfb9KF703t5OjWDBWMA4GA1UdDwEB/wQEAwIHgDAVBgNVHSUEDjAMBgorBgEEAYPoXgIBMAwGA1UdEwEB/wQCMAAwHwYDVR0jBBgwFoAUzlHiBIFOZFsj+OPEz5o+nMHXXMIwCgYIKoZIzj0EAwMDZwAwZAIwMXMdFJ4BetLLVY7ORuE9noqbbAZOZn/aArXyTwFAZfKrPzxF2vPoJNf1+UCdg1XGAjBwX1zd9WGqYkqmL5SFqw1QySjr1zJfpJM9+1rdDwSPLMOPOjKuiXjoU/pUUeG9RwmhY3BhZFkNngAAAAAAAAAAAAAAAAAAAAAAAAAAAAAAAAAAAAAAAAAAAAAAAAAAAAAAAAAAAAAAAAAAAAAAAAAAAAAAAAAAAAAAAAAAAAAAAAAAAAAAAAAAAAAAAAAAAAAAAAAAAAAAAAAAAAAAAAAAAAAAAAAAAAAAAAAAAAAAAAAAAAAAAAAAAAAAAAAAAAAAAAAAAAAAAAAAAAAAAAAAAAAAAAAAAAAAAAAAAAAAAAAAAAAAAAAAAAAAAAAAAAAAAAAAAAAAAAAAAAAAAAAAAAAAAAAAAAAAAAAAAAAAAAAAAAAAAAAAAAAAAAAAAAAAAAAAAAAAAAAAAAAAAAAAAAAAAAAAAAAAAAAAAAAAAAAAAAAAAAAAAAAAAAAAAAAAAAAAAAAAAAAAAAAAAAAAAAAAAAAAAAAAAAAAAAAAAAAAAAAAAAAAAAAAAAAAAAAAAAAAAAAAAAAAAAAAAAAAAAAAAAAAAAAAAAAAAAAAAAAAAAAAAAAAAAAAAAAAAAAAAAAAAAAAAAAAAAAAAAAAAAAAAAAAAAAAAAAAAAAAAAAAAAAAAAAAAAAAAAAAAAAAAAAAAAAAAAAAAAAAAAAAAAAAAAAAAAAAAAAAAAAAAAAAAAAAAAAAAAAAAAAAAAAAAAAAAAAAAAAAAAAAAAAAAAAAAAAAAAAAAAAAAAAAAAAAAAAAAAAAAAAAAAAAAAAAAAAAAAAAAAAAAAAAAAAAAAAAAAAAAAAAAAAAAAAAAAAAAAAAAAAAAAAAAAAAAAAAAAAAAAAAAAAAAAAAAAAAAAAAAAAAAAAAAAAAAAAAAAAAAAAAAAAAAAAAAAAAAAAAAAAAAAAAAAAAAAAAAAAAAAAAAAAAAAAAAAAAAAAAAAAAAAAAAAAAAAAAAAAAAAAAAAAAAAAAAAAAAAAAAAAAAAAAAAAAAAAAAAAAAAAAAAAAAAAAAAAAAAAAAAAAAAAAAAAAAAAAAAAAAAAAAAAAAAAAAAAAAAAAAAAAAAAAAAAAAAAAAAAAAAAAAAAAAAAAAAAAAAAAAAAAAAAAAAAAAAAAAAAAAAAAAAAAAAAAAAAAAAAAAAAAAAAAAAAAAAAAAAAAAAAAAAAAAAAAAAAAAAAAAAAAAAAAAAAAAAAAAAAAAAAAAAAAAAAAAAAAAAAAAAAAAAAAAAAAAAAAAAAAAAAAAAAAAAAAAAAAAAAAAAAAAAAAAAAAAAAAAAAAAAAAAAAAAAAAAAAAAAAAAAAAAAAAAAAAAAAAAAAAAAAAAAAAAAAAAAAAAAAAAAAAAAAAAAAAAAAAAAAAAAAAAAAAAAAAAAAAAAAAAAAAAAAAAAAAAAAAAAAAAAAAAAAAAAAAAAAAAAAAAAAAAAAAAAAAAAAAAAAAAAAAAAAAAAAAAAAAAAAAAAAAAAAAAAAAAAAAAAAAAAAAAAAAAAAAAAAAAAAAAAAAAAAAAAAAAAAAAAAAAAAAAAAAAAAAAAAAAAAAAAAAAAAAAAAAAAAAAAAAAAAAAAAAAAAAAAAAAAAAAAAAAAAAAAAAAAAAAAAAAAAAAAAAAAAAAAAAAAAAAAAAAAAAAAAAAAAAAAAAAAAAAAAAAAAAAAAAAAAAAAAAAAAAAAAAAAAAAAAAAAAAAAAAAAAAAAAAAAAAAAAAAAAAAAAAAAAAAAAAAAAAAAAAAAAAAAAAAAAAAAAAAAAAAAAAAAAAAAAAAAAAAAAAAAAAAAAAAAAAAAAAAAAAAAAAAAAAAAAAAAAAAAAAAAAAAAAAAAAAAAAAAAAAAAAAAAAAAAAAAAAAAAAAAAAAAAAAAAAAAAAAAAAAAAAAAAAAAAAAAAAAAAAAAAAAAAAAAAAAAAAAAAAAAAAAAAAAAAAAAAAAAAAAAAAAAAAAAAAAAAAAAAAAAAAAAAAAAAAAAAAAAAAAAAAAAAAAAAAAAAAAAAAAAAAAAAAAAAAAAAAAAAAAAAAAAAAAAAAAAAAAAAAAAAAAAAAAAAAAAAAAAAAAAAAAAAAAAAAAAAAAAAAAAAAAAAAAAAAAAAAAAAAAAAAAAAAAAAAAAAAAAAAAAAAAAAAAAAAAAAAAAAAAAAAAAAAAAAAAAAAAAAAAAAAAAAAAAAAAAAAAAAAAAAAAAAAAAAAAAAAAAAAAAAAAAAAAAAAAAAAAAAAAAAAAAAAAAAAAAAAAAAAAAAAAAAAAAAAAAAAAAAAAAAAAAAAAAAAAAAAAAAAAAAAAAAAAAAAAAAAAAAAAAAAAAAAAAAAAAAAAAAAAAAAAAAAAAAAAAAAAAAAAAAAAAAAAAAAAAAAAAAAAAAAAAAAAAAAAAAAAAAAAAAAAAAAAAAAAAAAAAAAAAAAAAAAAAAAAAAAAAAAAAAAAAAAAAAAAAAAAAAAAAAAAAAAAAAAAAAAAAAAAAAAAAAAAAAAAAAAAAAAAAAAAAAAAAAAAAAAAAAAAAAAAAAAAAAAAAAAAAAAAAAAAAAAAAAAAAAAAAAAAAAAAAAAAAAAAAAAAAAAAAAAAAAAAAAAAAAAAAAAAAAAAAAAAAAAAAAAAAAAAAAAAAAAAAAAAAAAAAAAAAAAAAAAAAAAAAAAAAAAAAAAAAAAAAAAAAAAAAAAAAAAAAAAAAAAAAAAAAAAAAAAAAAAAAAAAAAAAAAAAAAAAAAAAAAAAAAAAAAAAAAAAAAAAAAAAAAAAAAAAAAAAAAAAAAAAAAAAAAAAAAAAAAAAAAAAAAAAAAAAAAAAAAAAAAAAAAAAAAAAAAAAAAAAAAAAAAAAAAAAAAAAAAAAAAAAAAAAAAAAAAAAAAAAAAAAAAAAAAAAAAAAAAAAAAAAAAAAAAAAAAAAAAAAAAAAAAAAAAAAAAAAAAAAAAAAAAAAAAAAAAAAAAAAAAAAAAAAAAAAAAAAAAAAAAAAAAAAAAAAAAAAAAAAAAAAAAAAAAAAAAAAAAAAAAAAAAAAAAAAAAAAAAAAAAAAAAAAAAAAAAAAAAAAAAAAAAAAAAAAAAAAAAAAAAAAAAAAAAAAAAAAAAAAAAAAAAAAAAAAAAAAAAAAAAAAAAAAAAAAAAAAAAAAAAAAAAAAAAAAAAAAAAAAAAAAAAAAAAAAAAAAAAAAAAAAAAAAAAAAAAAAAAAAAAAAAAAAAAAAAAAAAAAAAAAAAAAAAAAAAAAAAAAAAAAAAAAAAAAAAAAAAAAAAAAAAAAAAAAAAAAAAAAAAAAAAAAAAAAAAAAAAAAAAAAAAAAAAAAAAAAAAAAAAAAAAAAAAAAAAAAAAAAAAAAAAAAAAAAAAAAAAAAAAAAAAAAAAAAAAAAAAAAAAAAAAAAAAAAAAAAAAAAAAAAAAAAAAAAAAAAAAAAAAAAAAAAAAAAAAAAAAAAAAAAAAAAAAAAAAAAAAAAAAAAAAAAAAAAAAAAAAAAAAAAAAAAAAAAAAAAAAAAAAAAAAAAAAAAAAAAAAAAAAAAAAAAAAAAAAAAAAAAAAAAAAAAAAAAAAAAAAAAAAAAAAAAAAAAAAAAAAAAAAAAAAAAAAAAAAAAAAAAAAAAAAAAAAAAAAAAAAAAAAAAAAAAAAAAAAAAAAAAAAAAAAAAAAAAAAAAAAAAAAAAAAAAAAAAAAAAAAAAAAAAAAAAAAAAAAAAAAAAAAAAAAAAAAAAAAAAAAAAAAAAAAAAAAAAAAAAAAAAAAAAAAAAAAAAAAAAAAAAAAAAAAAAAAAAAAAAAAAAAAAAAAAAAAAAAAAAAAAAAAAAAAAAAAAAAAAAAAAAAAAAAAAAAAAAAAAAAAAAAAAAAAAAAAAAAAAAAAAAAAAAAAAAAAAAAAAAAAAAAAAAAAAAAAAAAAAAAAAAAAAAAAAAAAAAAAAAAAAAAAAAAAAAAAAAAAAAAAAAAAAAAAAAAAAAAAAAAAAAAAAAAAAAAAAAAAAAAAAAAAAAAAAAAAAAAAAAAAAAAAAAAAAAAAAAAAAAAAAAAAAAAAAAAAAAAAAAAAAAAAAAAAAAAAAAAAAAAAAAAAAAAAAAAAAAAAAAAAAAAAAAAAAAAAAAAAAAAAAAAAAAAAAAAAAAAAAAAAAAAAAAAAAAAAAAAAAAAAAAAAAAAAAAAAAAAAAAAAAAAAAAAAAAAAAAAAAAAAAAAAAAAAAAAAAAAAAAAAAAAAAAAAAAAAAAAAAAAAAAAAAAAAAAAAAAAAAAAAAAAAAAAAAAAAAAAAAAAAAAAAAAAAAAAAAAAAAAAAAAAAAAAAAAAAAAAAAAAAAAAAAAAAAAAAAAAAAAAAAAAAAAAAAAAAAAAAAAAAAAAAAAAAAAAAAAAAAAAAAAAAAAAAAAAAAAAAAAAAAAAAAAAAAAAAAAAAAAAAAAAAAAAAAAAAAAAAAAAAAAAAAAAAAAAAAAAAAAAAAAAAAAAAAAAAAAAAAAAAAAAAAAAAAAAAAAAAAAAAAAAAAAAAAAAAAAAAAAAAAAAAAAAAAAAAAAAAAAAAAAAAAAAAAAAAAAAAAAAAAAAAAAAAAAAAAAAAAAAAAAAAAAAAAAAAAAAAAAAAAAAAAAAAAAAAAAAAAAAAAAAAAAAAAAAAAAAAAAAAAAAAAAAAAAAAAAAAAAAAAAAAAAAAAAAAAAAAAAAAAAAAAAAAAAAAAAAAAAAAAAAAAAAAAAAAAAAAAAAAAAAAAAAAAAAAAAAAAAAAAAAAAAAAAAAAAAAAAAAAAAAAAAAAAAAAAAAAAAAAAAAAAAAAAAAAPZYQM0Fe0Zb8GM8igXpT+KDi6LQHK6ddzSoj9HmSe2WgdlRCQDIlhYxncPOGTbA3ppPMRiCOuJyNXY2yDBnTthBf5M=</c2pa:manifest></metadata><defs><clipPath id="96123d9c96"><path d="M 1.03125 0 L 1308.277344 0 L 1308.277344 231.703125 L 1.03125 231.703125 Z M 1.03125 0 " clip-rule="nonzero"/></clipPath><clipPath id="5381fdeda5"><path d="M 1.03125 21.554688 C 1.03125 9.648438 10.679688 0 22.585938 0 L 1286.707031 0 C 1298.613281 0 1308.261719 9.648438 1308.261719 21.554688 L 1308.261719 210.148438 C 1308.261719 222.054688 1298.613281 231.703125 1286.707031 231.703125 L 22.585938 231.703125 C 10.679688 231.703125 1.03125 222.054688 1.03125 210.148438 Z M 1.03125 21.554688 " clip-rule="nonzero"/></clipPath><clipPath id="a46a2bdb4d"><path d="M 0.03125 0 L 1307.277344 0 L 1307.277344 231.703125 L 0.03125 231.703125 Z M 0.03125 0 " clip-rule="nonzero"/></clipPath><clipPath id="5ebd04e4d9"><path d="M 0.03125 21.554688 C 0.03125 9.648438 9.679688 0 21.585938 0 L 1285.707031 0 C 1297.613281 0 1307.261719 9.648438 1307.261719 21.554688 L 1307.261719 210.148438 C 1307.261719 222.054688 1297.613281 231.703125 1285.707031 231.703125 L 21.585938 231.703125 C 9.679688 231.703125 0.03125 222.054688 0.03125 210.148438 Z M 0.03125 21.554688 " clip-rule="nonzero"/></clipPath><clipPath id="c3c7411128"><rect x="0" width="1308" y="0" height="232"/></clipPath><clipPath id="fea611be63"><path d="M 34.980469 32.480469 L 110.417969 32.480469 L 110.417969 107.917969 L 34.980469 107.917969 Z M 34.980469 32.480469 " clip-rule="nonzero"/></clipPath><clipPath id="7b90f8ec0f"><path d="M 34.980469 70.199219 C 34.980469 49.363281 51.863281 32.480469 72.699219 32.480469 C 93.53125 32.480469 110.417969 49.363281 110.417969 70.199219 C 110.417969 91.035156 93.53125 107.917969 72.699219 107.917969 C 51.863281 107.917969 34.980469 91.035156 34.980469 70.199219 Z M 34.980469 70.199219 " clip-rule="nonzero"/></clipPath><clipPath id="a08a6138ae"><path d="M 0.980469 0.480469 L 76.417969 0.480469 L 76.417969 75.917969 L 0.980469 75.917969 Z M 0.980469 0.480469 " clip-rule="nonzero"/></clipPath><clipPath id="3443d7e1e6"><path d="M 0.980469 38.199219 C 0.980469 17.363281 17.863281 0.480469 38.699219 0.480469 C 59.53125 0.480469 76.417969 17.363281 76.417969 38.199219 C 76.417969 59.035156 59.53125 75.917969 38.699219 75.917969 C 17.863281 75.917969 0.980469 59.035156 0.980469 38.199219 Z M 0.980469 38.199219 " clip-rule="nonzero"/></clipPath><clipPath id="9df0f07406"><rect x="0" width="77" y="0" height="76"/></clipPath><clipPath id="7145029be6"><path d="M 55.265625 75 L 90.441406 75 L 90.441406 90.222656 L 55.265625 90.222656 Z M 55.265625 75 " clip-rule="nonzero"/></clipPath><clipPath id="a8e0a19ee5"><path d="M 57 49.8125 L 87 49.8125 L 87 74 L 57 74 Z M 57 49.8125 " clip-rule="nonzero"/></clipPath></defs><g clip-path="url(#fea611be63)"><g clip-path="url(#7b90f8ec0f)"><g transform="matrix(1, 0, 0, 1, 34, 32)"><g clip-path="url(#9df0f07406)"><g clip-path="url(#a08a6138ae)"><g clip-path="url(#3443d7e1e6)"><path fill="#d6e4f7" d="M 0.980469 0.480469 L 76.417969 0.480469 L 76.417969 75.917969 L 0.980469 75.917969 Z M 0.980469 0.480469 " fill-opacity="1" fill-rule="nonzero"/></g></g></g></g></g></g><g clip-path="url(#7145029be6)"><path fill="#0e2a53" d="M 65.164062 75.722656 C 65.777344 75.679688 67.605469 75.621094 68.113281 75.792969 C 68.609375 75.960938 68.902344 76.410156 69.277344 76.746094 L 72.6875 80.316406 C 72.789062 80.332031 73.738281 79.261719 73.882812 79.113281 C 74.863281 78.117188 75.851562 77.132812 76.804688 76.109375 C 77.066406 75.902344 77.371094 75.738281 77.710938 75.707031 C 82.078125 75.328125 86.097656 76.972656 88.410156 80.746094 C 90.089844 83.492188 90.222656 86.183594 90.082031 89.347656 C 89.941406 90.121094 89.378906 90.503906 88.625 90.554688 L 56.820312 90.554688 C 56.039062 90.546875 55.394531 90.0625 55.320312 89.261719 C 55.21875 88.167969 55.269531 86.304688 55.410156 85.210938 C 56.03125 80.3125 60.15625 76.050781 65.164062 75.722656 Z M 65.164062 75.722656 " fill-opacity="1" fill-rule="nonzero"/></g><path fill="#0e2a53" d="M 72.21875 72.84375 C 67.777344 72.917969 64.097656 68.929688 63.433594 64.730469 C 62.226562 57.117188 70.5625 51.226562 77.070312 55.832031 C 81.691406 59.101562 82.066406 65.722656 78.328125 69.839844 C 78.261719 69.914062 77.808594 70.375 77.773438 70.382812 C 77.742188 70.390625 77.320312 70.21875 77.210938 70.199219 C 76.652344 70.085938 74.839844 70.121094 74.226562 70.179688 C 72.921875 70.300781 72.097656 71.605469 72.21875 72.84375 Z M 72.21875 72.84375 " fill-opacity="1" fill-rule="nonzero"/><g clip-path="url(#a8e0a19ee5)"><path fill="#0e2a53" d="M 82.65625 67.351562 C 82.648438 67.34375 82.480469 67.261719 82.429688 67.21875 C 82.234375 67.042969 82.101562 66.871094 82.007812 66.625 C 81.863281 64.4375 81.980469 62.210938 81.949219 60.011719 C 82.042969 59.578125 82.34375 59.207031 82.75 59.03125 C 81.730469 56.070312 79.265625 53.625 76.328125 52.554688 C 70.484375 50.421875 63.546875 52.988281 61.472656 59.03125 C 61.996094 59.289062 62.242188 59.726562 62.28125 60.300781 C 62.414062 62.21875 62.175781 64.289062 62.277344 66.222656 C 62.125 67.457031 61.15625 67.582031 60.097656 67.515625 C 58.523438 67.414062 57.4375 66.316406 57.332031 64.742188 C 57.273438 63.878906 57.269531 62.5625 57.328125 61.695312 C 57.398438 60.664062 57.910156 59.71875 58.851562 59.246094 C 58.96875 59.1875 59.390625 59.050781 59.421875 59.011719 C 59.46875 58.960938 59.59375 58.402344 59.644531 58.261719 C 62 51.597656 69.292969 48.527344 75.957031 50.347656 C 80.144531 51.492188 83.621094 54.777344 84.78125 58.988281 C 85.921875 59.402344 86.757812 60.324219 86.851562 61.570312 C 86.917969 62.460938 86.921875 63.980469 86.847656 64.871094 C 86.757812 65.984375 85.988281 67.039062 84.90625 67.367188 C 84.6875 67.433594 84.464844 67.453125 84.246094 67.511719 C 84.136719 67.925781 84.089844 68.351562 83.972656 68.761719 C 83.199219 71.511719 80.804688 73.234375 77.957031 73.230469 C 77.703125 73.507812 77.507812 73.78125 77.125 73.882812 C 76.683594 73.996094 74.59375 73.996094 74.160156 73.878906 C 72.8125 73.519531 72.894531 71.28125 74.4375 71.148438 C 75.035156 71.097656 76.339844 71.085938 76.925781 71.15625 C 77.398438 71.210938 77.683594 71.492188 77.945312 71.855469 C 80.023438 71.644531 81.742188 70.242188 82.441406 68.285156 C 82.492188 68.148438 82.703125 67.4375 82.65625 67.351562 Z M 82.65625 67.351562 " fill-opacity="1" fill-rule="nonzero"/></g></svg>